<?xml version="1.0" encoding="utf-8"?>
<!-- Generator: Adobe Illustrator 27.1.1, SVG Export Plug-In . SVG Version: 6.00 Build 0)  -->
<svg version="1.1" id="Layer_1" xmlns="http://www.w3.org/2000/svg" xmlns:xlink="http://www.w3.org/1999/xlink" x="0px" y="0px"
	 viewBox="0 0 80 80" style="enable-background:new 0 0 80 80;" xml:space="preserve">
<style type="text/css">
	.st0{fill-rule:evenodd;clip-rule:evenodd;fill:#C9474F;}
	.st1{fill-rule:evenodd;clip-rule:evenodd;fill:#155D84;}
	.st2{fill-rule:evenodd;clip-rule:evenodd;fill:#8C8F92;}
</style>
<g>
	<path class="st0" d="M65,10H16c-3.8,0-6.9,3.6-6.9,8v0c0,4.4,3.1,8,6.9,8h48.9c3.8,0,6.9-3.5,7-7.9C71.9,13.6,68.8,10,65,10"/>
	<path class="st1" d="M49.6,33.5H16c-3.8,0-6.9,3.6-6.9,8v0c0,4.4,3.1,8,6.9,8h33.6c2.7,0,5-3.6,5-8C54.5,37.1,52.3,33.5,49.6,33.5"
		/>
	<path class="st2" d="M32.3,71H21c-3.1,0-5.6-2.5-5.6-5.6v-3.3c0-3.1,2.5-5.6,5.6-5.6h11.3c3.1,0,5.6,2.5,5.6,5.6v3.3
		C37.8,68.5,35.4,71,32.3,71z"/>
</g>
</svg>
