<?xml version="1.0" encoding="utf-8"?>
<!-- Generator: Adobe Illustrator 27.1.1, SVG Export Plug-In . SVG Version: 6.00 Build 0)  -->
<svg version="1.1" id="Layer_1" xmlns="http://www.w3.org/2000/svg" xmlns:xlink="http://www.w3.org/1999/xlink" x="0px" y="0px"
	 viewBox="0 0 80 80" style="enable-background:new 0 0 80 80;" xml:space="preserve">
<style type="text/css">
	.st0{fill-rule:evenodd;clip-rule:evenodd;fill:#C9474F;}
	.st1{fill-rule:evenodd;clip-rule:evenodd;fill:#155D84;}
	.st2{fill-rule:evenodd;clip-rule:evenodd;fill:#8C8F92;}
</style>
<g>
	<path class="st0" d="M63.9,11.3H17c-3.6,0-6.6,3.4-6.6,7.6v0c0,4.2,2.9,7.6,6.6,7.6h46.8c3.6,0,6.6-3.3,6.7-7.5
		C70.5,14.8,67.5,11.3,63.9,11.3"/>
	<path class="st1" d="M49.2,33.8H17c-3.6,0-6.6,3.4-6.6,7.6v0c0,4.2,2.9,7.6,6.6,7.6h32.1c2.6,0,4.8-3.4,4.8-7.6
		C53.9,37.2,51.8,33.8,49.2,33.8"/>
	<path class="st2" d="M32.4,69.7H22.1c-3.1,0-5.6-2.5-5.6-5.6v-2.7c0-3.1,2.5-5.6,5.6-5.6h10.3c3.1,0,5.6,2.5,5.6,5.6v2.7
		C38,67.2,35.5,69.7,32.4,69.7z"/>
</g>
</svg>
